<?xml version="1.0" encoding="UTF-8" standalone="no"?>
<svg
   xmlns:dc="http://purl.org/dc/elements/1.1/"
   xmlns:cc="http://creativecommons.org/ns#"
   xmlns:rdf="http://www.w3.org/1999/02/22-rdf-syntax-ns#"
   xmlns:svg="http://www.w3.org/2000/svg"
   xmlns="http://www.w3.org/2000/svg"
   xmlns:sodipodi="http://sodipodi.sourceforge.net/DTD/sodipodi-0.dtd"
   xmlns:inkscape="http://www.inkscape.org/namespaces/inkscape"
   height="25"
   width="25"
   id="svg4173"
   version="1.1"
   inkscape:version="0.91 r13725"
   sodipodi:docname="border-info.svg">
  <metadata
     id="metadata4181">
    <rdf:RDF>
      <cc:Work
         rdf:about="">
        <dc:format>image/svg+xml</dc:format>
        <dc:type
           rdf:resource="http://purl.org/dc/dcmitype/StillImage" />
        <dc:title></dc:title>
      </cc:Work>
    </rdf:RDF>
  </metadata>
  <defs
     id="defs4179" />
  <sodipodi:namedview
     pagecolor="#ffffff"
     bordercolor="#666666"
     borderopacity="1"
     objecttolerance="10"
     gridtolerance="10"
     guidetolerance="10"
     inkscape:pageopacity="0"
     inkscape:pageshadow="2"
     inkscape:window-width="1600"
     inkscape:window-height="876"
     id="namedview4177"
     showgrid="false"
     inkscape:zoom="26.700352"
     inkscape:cx="9.7417021"
     inkscape:cy="13.062828"
     inkscape:window-x="0"
     inkscape:window-y="24"
     inkscape:window-maximized="1"
     inkscape:current-layer="svg4173" />
  <path
     d="M0 10H3V3h7V0H0ZM15 0v3h7v7h3V0ZM0 15V25H10V22H3v-7zm22 0v7h-7v3H25V15Z"
     id="path4175" />
  <path
     style="fill:#0088ff;fill-opacity:1;stroke:#0088ff;stroke-width:0.03745269;stroke-opacity:1"
     d="m 22.026184,6.4803152 0,-3.5018265 -3.501826,0 -3.501827,0 0,-1.4793813 0,-1.4793812 4.981208,0 4.981208,0 0,4.9812077 0,4.9812078 -1.479381,0 -1.479382,0 0,-3.5018265 z"
     id="path4723"
     inkscape:connector-curvature="0" />
  <path
     style="fill:#0088ff;fill-opacity:1;stroke:#0088ff;stroke-width:0.03745269;stroke-opacity:1"
     d="m 15.022531,23.502563 0,-1.498108 3.501827,0 3.501826,0 0,-3.501826 0,-3.501827 1.479382,0 1.479381,0 0,4.999934 0,4.999934 -4.981208,0 -4.981208,0 0,-1.498107 z"
     id="path4725"
     inkscape:connector-curvature="0" />
  <path
     style="fill:#0088ff;fill-opacity:1;stroke:#0088ff;stroke-width:0.03745269;stroke-opacity:1"
     d="m 0.00400273,20.000736 0,-4.999934 1.49810757,0 1.4981076,0 0,3.501827 0,3.501826 3.4831001,0 3.4831002,0 0,1.498108 0,1.498107 -4.9812077,0 -4.98120777,0 0,-4.999934 z"
     id="path4727"
     inkscape:connector-curvature="0" />
  <path
     style="fill:#0088ff;fill-opacity:1;stroke:#0088ff;stroke-width:0.03745269;stroke-opacity:1"
     d="m 0.00400273,5.0009339 0,-4.9812077 4.98120777,0 4.9812077,0 0,1.4793812 0,1.4793813 -3.4831002,0 -3.4831001,0 0,3.5018265 0,3.5018265 -1.4981076,0 -1.49810757,0 0,-4.9812078 z"
     id="path4729"
     inkscape:connector-curvature="0" />
</svg>
